<?xml version="1.0" encoding="UTF-8"?><!DOCTYPE svg PUBLIC "-//W3C//DTD SVG 1.1//EN" "http://www.w3.org/Graphics/SVG/1.1/DTD/svg11.dtd"><svg xmlns="http://www.w3.org/2000/svg"><symbol id="android-1" viewBox="0 0 23 26">
    <title>
        android
    </title>
    <path d="M22.687 10.702c0-.885-.721-1.602-1.61-1.602-.89 0-1.61.718-1.61 1.603v6.708c0 .886.721 1.602 1.61 1.602.89 0 1.61-.716 1.611-1.602l-.001-6.71zm-18.24-1.6l.001 9.993c0 .946.769 1.71 1.719 1.71h1.17l.001 3.55c0 .883.722 1.602 1.61 1.602.89 0 1.61-.72 1.61-1.603v-3.55h2.174l.001 3.55c0 .883.723 1.603 1.61 1.601.89 0 1.611-.718 1.611-1.603v-3.548l1.173-.001c.948 0 1.72-.764 1.72-1.71V9.1l-14.4.002zm10.499-3.576a.606.606 0 0 1-.609-.605.611.611 0 0 1 .61-.607.605.605 0 1 1 0 1.211h-.001zm-6.606 0a.607.607 0 0 1-.606-.604.608.608 0 0 1 1.215 0 .607.607 0 0 1-.609.605zm6.858-3.155L16.322.33a.222.222 0 0 0-.088-.302.225.225 0 0 0-.303.089l-1.136 2.063a7.763 7.763 0 0 0-3.155-.66 7.767 7.767 0 0 0-3.149.657L7.355.118a.223.223 0 0 0-.303-.089.22.22 0 0 0-.089.301l1.125 2.04c-2.21 1.134-3.702 3.293-3.701 5.771l14.507-.001c0-2.478-1.49-4.632-3.696-5.769zM2.21 9.1C1.321 9.1.6 9.818.6 10.702l.001 6.709c0 .887.721 1.602 1.611 1.602s1.61-.716 1.61-1.602V10.7C3.822 9.817 3.1 9.1 2.21 9.1z" fill="" fill-rule="evenodd"/>
</symbol><symbol id="apple-1" viewBox="0 0 21 26">
    <title>
        shape
    </title>
    <path d="M14.08 4.151C14.965 3.052 15.562 1.522 15.4 0c-1.278.052-2.825.872-3.742 1.97-.822.973-1.542 2.53-1.347 4.022 1.425.113 2.88-.741 3.768-1.84m3.197 9.661c.036 3.935 3.373 5.244 3.41 5.26-.028.093-.533 1.867-1.758 3.699-1.06 1.584-2.158 3.162-3.89 3.194-1.7.032-2.247-1.032-4.192-1.032-1.944 0-2.552 1-4.162 1.064-1.671.065-2.944-1.712-4.011-3.29-2.182-3.228-3.85-9.122-1.61-13.1C2.173 7.632 4.161 6.38 6.318 6.349c1.641-.032 3.19 1.13 4.193 1.13 1.002 0 2.885-1.397 4.863-1.192.829.035 3.154.342 4.647 2.579-.12.076-2.775 1.658-2.746 4.947" fill="" fill-rule="evenodd"/>
</symbol><symbol id="arrow-dir-1" viewBox="0 0 22 16">
    <title>
        arrow-dir-1
    </title>
    <g fill="" fill-rule="evenodd">
        <path d="M0 9h20V7H0v2z"/>
        <path d="M12.293 1.707l7 7V7.293l-7 7 1.414 1.414 7-7L21.414 8l-.707-.707-7-7-1.414 1.414z"/>
    </g>
</symbol><symbol id="arrow-down-1" viewBox="0 0 11 7">
    <title>
        Shape Copy
    </title>
    <path d="M.58 1.432c0-.155.065-.308.192-.419a.572.572 0 0 1 .798.051L5.65 5.6l4.082-4.536a.57.57 0 0 1 .797-.05.552.552 0 0 1 .052.785L6.075 6.81a.568.568 0 0 1-.849 0L.72 1.8a.547.547 0 0 1-.14-.368z" fill="" fill-rule="evenodd"/>
</symbol><symbol id="arrow-lt-1" viewBox="0 0 20 46">
    <title>
        Imported Layers Copy
    </title>
    <path d="M18.345.25c-.22 0-.442.107-.61.32L.75 22.112a1.26 1.26 0 0 0-.25.798c-.004.288.076.578.25.797l16.985 21.54c.338.428.883.428 1.221 0 .338-.429.338-1.12 0-1.549L2.563 22.907 18.956 2.12c.337-.429.337-1.122 0-1.55-.168-.213-.39-.32-.61-.32z" fill="" fill-rule="evenodd"/>
</symbol><symbol id="arrow-rt-1" viewBox="0 0 20 46">
    <title>
        Imported Layers
    </title>
    <path d="M1.655.25c.22 0 .442.107.61.32L19.25 22.112c.174.22.254.51.25.798.004.288-.076.578-.25.797L2.265 45.246c-.338.428-.883.428-1.221 0-.338-.429-.338-1.12 0-1.549l16.393-20.79L1.044 2.12C.707 1.69.707.998 1.044.57c.168-.213.39-.32.61-.32z" fill="" fill-rule="evenodd"/>
</symbol><symbol id="arrow-rt-2" viewBox="0 0 15 13">
    <title>
        arrow
    </title>
    <g fill="" fill-rule="evenodd">
        <path d="M13 6.5H1A.25.25 0 1 0 1 7h12a.25.25 0 1 0 0-.5z"/>
        <path d="M7.163 12.94l7-6a.25.25 0 0 0 0-.38l-7-6a.25.25 0 1 0-.326.38l7 6v-.38l-7 6a.25.25 0 0 0 .326.38z"/>
    </g>
</symbol><symbol id="calendar-1" viewBox="0 0 29 31">
    <title>
        Shape
    </title>
    <path d="M26 31H3a3 3 0 0 1-3-3V5a3 3 0 0 1 3-3h2v1H3a2 2 0 0 0-2 2v4.5h27V5a2 2 0 0 0-2-2h-2V2h2a3 3 0 0 1 3 3v23a3 3 0 0 1-3 3zm2-20.5H1V28a2 2 0 0 0 2 2h23a2 2 0 0 0 2-2V10.5zm-8 9h3.5v1H20v-1zm0-4h3.5v1H20v-1zm-7 8h3.5v1H13v-1zm0-4h3.5v1H13v-1zm0-4h3.5v1H13v-1zm-7 8h3.5v1H6v-1zm0-4h3.5v1H6v-1zm0-4h3.5v1H6v-1zM22 5a1 1 0 0 1-1-1V1a1 1 0 1 1 2 0v3a1 1 0 0 1-1 1zM9 2h11v1H9V2zM7 5a1 1 0 0 1-1-1V1a1 1 0 1 1 2 0v3a1 1 0 0 1-1 1z" fill="" fill-rule="evenodd"/>
</symbol><symbol id="close-1" viewBox="0 0 36 36">
    <title>
        X
    </title>
    <g fill="" fill-rule="evenodd">
        <path d="M34.187 35.609c-.363 0-.727-.14-1.004-.417L.807 2.817a1.42 1.42 0 1 1 2.01-2.01l32.376 32.376a1.42 1.42 0 0 1-1.006 2.426z"/>
        <path d="M1.813 35.609a1.42 1.42 0 0 1-1.005-2.426L33.183.807a1.421 1.421 0 1 1 2.01 2.01L2.817 35.192a1.416 1.416 0 0 1-1.004.417z"/>
    </g>
</symbol><symbol id="cross-1" viewBox="0 0 36 36">
    <title>
        X
    </title>
    <g fill="" fill-rule="evenodd">
        <path d="M34.187 35.609c-.363 0-.727-.14-1.004-.417L.807 2.817a1.42 1.42 0 1 1 2.01-2.01l32.376 32.376a1.42 1.42 0 0 1-1.006 2.426z"/>
        <path d="M1.813 35.609a1.42 1.42 0 0 1-1.005-2.426L33.183.807a1.421 1.421 0 1 1 2.01 2.01L2.817 35.192a1.416 1.416 0 0 1-1.004.417z"/>
    </g>
</symbol><symbol id="facebook-1" viewBox="0 0 9 18">
    <title>
        facebook
    </title>
    <path d="M2.236 17.949V9.527H0V6.494h2.236v-2.59C2.236 1.87 3.557 0 6.601 0c1.233 0 2.144.118 2.144.118l-.072 2.831s-.93-.009-1.943-.009c-1.098 0-1.274.504-1.274 1.34v2.214h3.305l-.144 3.033h-3.16v8.422h-3.22z" fill="" fill-rule="evenodd"/>
</symbol><symbol id="flickr-1" viewBox="0 0 18 7">
    <title>
        Group
    </title>
    <g fill="" fill-rule="evenodd">
        <ellipse opacity=".75" cx="3.399" cy="3.385" rx="3.399" ry="3.385"/>
        <ellipse cx="14.23" cy="3.385" rx="3.332" ry="3.385"/>
    </g>
</symbol><symbol id="geomarker-1" viewBox="0 0 30 32">
    <title>
        Shape
    </title>
    <path d="M15 32c-8.285 0-15-3.581-15-8 0-2.6 2.327-4.909 5.928-6.37l.696.77C3.215 19.678 1 21.707 1 24c0 3.866 6.268 7 14 7s14-3.134 14-7c0-2.288-2.207-4.314-5.603-5.591l.673-.78C27.673 19.09 30 21.4 30 24c0 4.419-6.715 8-15 8zm6.844-15.463l-.136.14-.034.035L14.966 24 8.19 16.677l-.068-.07-.103-.21A9.88 9.88 0 0 1 5.5 9.775a9.832 9.832 0 0 1 2.792-6.902A9.229 9.229 0 0 1 15 0c2.622 0 4.971 1.086 6.708 2.873C23.445 4.625 24.5 7.077 24.5 9.775a9.88 9.88 0 0 1-2.52 6.622l-.136.14zm-.846-12.96C19.381 1.914 17.252 1 15 1c-2.284 0-4.41.91-5.984 2.563A8.858 8.858 0 0 0 6.5 9.775c0 2.212.804 4.326 2.264 5.954l.093.105.062.126.034.07 6.011 6.495 5.974-6.49.01-.01.009-.01.034-.035.136-.14.123-.126a8.898 8.898 0 0 0 2.25-5.939c0-2.369-.888-4.57-2.502-6.197zM15 13a4 4 0 1 1 0-8 4 4 0 0 1 0 8zm0-7a3 3 0 1 0 0 6 3 3 0 0 0 0-6z" fill="" fill-rule="evenodd"/>
</symbol><symbol id="google-1" viewBox="0 0 29 18">
    <title>
        google +
    </title>
    <path d="M9.022 7.218v3.564s3.466-.005 4.878-.005c-.765 2.311-1.953 3.57-4.878 3.57-2.96 0-5.27-2.394-5.27-5.347 0-2.953 2.31-5.347 5.27-5.347 1.565 0 2.576.55 3.503 1.314.742-.74.68-.846 2.568-2.625A9.001 9.001 0 0 0 9.023 0C4.04 0 0 4.03 0 9s4.04 9 9.022 9c7.448 0 9.268-6.47 8.665-10.782H9.022zm16.258.178V4.277h-2.233v3.119H19.83v2.228h3.217v3.208h2.233V9.624h3.126V7.396H25.28z" fill="" fill-rule="evenodd"/>
</symbol><symbol id="instagram-1" viewBox="-290 413.9 14 14">
    <style>
        .st0{fill:#545050}
    </style>
    <title>
        Instagram
    </title>
    <path class="st0" d="M-277.7 413.9h-10.7c-.9 0-1.7.7-1.7 1.7v10.7c0 .9.7 1.7 1.7 1.7h10.7c.9 0 1.7-.7 1.7-1.7v-10.7c0-1-.7-1.7-1.7-1.7zm-2.2 2.2c0-.2.2-.4.4-.4h1.3c.2 0 .4.2.4.4v1.3c0 .2-.2.4-.4.4h-1.3c-.2 0-.4-.2-.4-.4v-1.3zm-3.1 2.1c1.5 0 2.7 1.2 2.7 2.7 0 1.5-1.2 2.7-2.7 2.7-1.5 0-2.7-1.2-2.7-2.7 0-1.5 1.2-2.7 2.7-2.7zm5.7 7.9c0 .2-.2.4-.4.4h-10.5c-.2 0-.4-.2-.4-.4v-6.6h1.8c-.2.3-.3.9-.3 1.3 0 2.3 1.9 4.2 4.3 4.2 2.3 0 4.3-1.9 4.3-4.2 0-.4-.1-1-.3-1.3h1.8v6.6z"/>
</symbol><symbol id="linkedin-1" viewBox="0 0 20 18">
    <title>
        linked in
    </title>
    <path d="M.501 5.772h3.876V18H.5V5.772zm14.465-.117c-2.22 0-3.612 1.197-3.869 2.036V5.772H6.744c.056 1.02 0 12.228 0 12.228h4.353v-6.617c0-.368-.017-.735.095-1 .3-.735.942-1.497 2.098-1.497 1.512 0 2.2 1.13 2.2 2.786V18h4.394v-6.799c0-3.788-2.164-5.546-4.918-5.546zM2.367 0C.937 0 0 .915 0 2.123c0 1.185.91 2.12 2.312 2.12h.028c1.457 0 2.364-.938 2.364-2.123C4.676.913 3.797 0 2.367 0z" fill="" fill-rule="evenodd"/>
</symbol><symbol id="marker-1" viewBox="0 0 11 15">
    <title>
        Fill 2358
    </title>
    <path d="M5.5 9.365c-1.82 0-3.3-1.45-3.3-3.23 0-1.782 1.48-3.231 3.3-3.231 1.82 0 3.3 1.449 3.3 3.23 0 1.782-1.48 3.231-3.3 3.231M5.5.75C2.364.75 0 3.258 0 6.583c0 4.185 5.113 7.954 5.33 8.112a.285.285 0 0 0 .34 0c.217-.159 5.33-3.927 5.33-8.112C11 3.258 8.636.75 5.5.75" fill="" fill-rule="evenodd"/>
</symbol><symbol id="search-1" viewBox="0 0 42 43">
    <title>
        Shape Copy 2
    </title>
    <path d="M41.59 39.018L30.448 27.695l.688-.947.019-.026c.125-.167.246-.335.364-.506l.01-.014c4.365-6.342 3.398-15.31-2.375-21.145C25.93 1.796 21.64 0 17.078 0c-4.561 0-8.85 1.796-12.075 5.056C1.777 8.317 0 12.652 0 17.264c0 4.611 1.776 8.947 5.003 12.207 3.216 3.253 7.495 5.043 12.046 5.043 2.728 0 5.447-.667 7.879-1.938.273-.156 1.083-.632 1.734-1.163l11.316 11.176c.068.068.433.411.964.411.233 0 .58-.07.917-.4l.565-.551c.432-.42.886-.863 1.211-1.191.633-.64.326-1.444-.045-1.84zM17 4.646c6.875 0 12.468 5.654 12.468 12.603 0 6.95-5.593 12.604-12.469 12.604-6.875 0-12.468-5.655-12.468-12.604 0-6.95 5.593-12.603 12.468-12.603z" fill="" fill-rule="evenodd"/>
</symbol><symbol id="tickets-1" viewBox="0 0 35 33">
    <title>
        Shape
    </title>
    <path d="M34.227 17.286l-1.835 1.256-.328-.49a.191.191 0 0 0-.266-.057.196.196 0 0 0-.048.271l.328.49L16.582 29.36l12.733-14.738.155.233c.061.09.18.115.267.056a.197.197 0 0 0 .048-.271l-.212-.316 2.092-2.421c.214-.056.423-.14.616-.272l2.33 3.487c.483.722.31 1.693-.384 2.168zm-2.992-.475l-.621-.93a.191.191 0 0 0-.267-.056.196.196 0 0 0-.048.27l.622.93c.06.09.18.116.267.057a.196.196 0 0 0 .047-.271zm-2.432-4.282l-.444-.375a.194.194 0 0 0-.272.021.193.193 0 0 0 .025.271l.444.375-14.163 16.732-.444-.374a.193.193 0 0 0-.272.02.192.192 0 0 0 .025.271l.444.375-1.442 1.705a1.542 1.542 0 0 1-2.173.167L7.372 29.05c.728-.86.61-2.153-.261-2.889-.873-.737-2.17-.636-2.897.224l-3.16-2.666a1.538 1.538 0 0 1-.196-2.168l1.443-1.703.444.375c.081.069.203.06.272-.021a.193.193 0 0 0-.025-.271l-.444-.375L16.71 2.825l.444.374c.082.07.204.06.272-.02a.192.192 0 0 0-.025-.271l-.444-.375L18.646.537A1.543 1.543 0 0 1 20.819.37l3.19 2.692c-.1.079-.193.167-.278.266-.728.86-.61 2.153.262 2.89.872.736 2.169.635 2.896-.224.085-.1.156-.208.218-.318l3.189 2.691c.654.552.742 1.523.196 2.168l-1.689 1.995zM4.958 21.59l-.843-.71a.193.193 0 0 0-.271.02.193.193 0 0 0 .024.271l.843.711c.082.069.204.06.272-.02a.192.192 0 0 0-.025-.272zm1.968 1.66l-.844-.71a.193.193 0 0 0-.271.02.192.192 0 0 0 .024.27l.844.712a.194.194 0 0 0 .271-.02.193.193 0 0 0-.024-.271zm1.966 1.66l-.843-.712a.194.194 0 0 0-.272.021.192.192 0 0 0 .025.272l.843.71a.194.194 0 0 0 .272-.02.192.192 0 0 0-.025-.271zm1.967 1.66l-.843-.712a.193.193 0 0 0-.272.022.192.192 0 0 0 .025.27l.843.712a.194.194 0 0 0 .271-.022.193.193 0 0 0-.024-.27zm1.967 1.66l-.844-.712a.192.192 0 0 0-.27.021.192.192 0 0 0 .023.27l.844.712a.194.194 0 0 0 .271-.021.193.193 0 0 0-.024-.27zm6.542-23.664l-.843-.711a.193.193 0 0 0-.272.021.193.193 0 0 0 .025.27l.843.712c.082.069.203.06.271-.02a.193.193 0 0 0-.024-.272zm1.967 1.66l-.843-.712a.193.193 0 0 0-.272.022.193.193 0 0 0 .025.27l.843.712c.081.069.204.06.272-.021a.192.192 0 0 0-.025-.27zm1.966 1.66l-.842-.712a.193.193 0 0 0-.272.021.192.192 0 0 0 .025.271l.842.711c.082.069.204.06.272-.021a.192.192 0 0 0-.025-.27zm1.967 1.659l-.842-.711a.193.193 0 0 0-.272.02.192.192 0 0 0 .024.272l.843.71c.082.07.204.06.272-.02a.192.192 0 0 0-.025-.271zm1.967 1.66l-.843-.712a.194.194 0 0 0-.271.021.192.192 0 0 0 .024.272l.843.71c.081.07.204.06.272-.02a.192.192 0 0 0-.025-.271z" fill="" fill-rule="evenodd"/>
</symbol><symbol id="twitter-1" viewBox="0 0 22 18">
    <title>
        twitter
    </title>
    <path d="M21.093.333c-.86.52-1.811.898-2.828 1.1A4.398 4.398 0 0 0 15.017 0c-2.456 0-4.448 2.035-4.448 4.544 0 .356.038.702.114 1.035-3.698-.19-6.977-1.997-9.173-4.75a4.611 4.611 0 0 0-.602 2.288c0 1.575.785 2.966 1.98 3.781A4.383 4.383 0 0 1 .87 6.332v.055c0 2.203 1.535 4.04 3.572 4.456a4.354 4.354 0 0 1-2.01.08c.566 1.804 2.209 3.118 4.157 3.154A8.811 8.811 0 0 1 0 15.96 12.425 12.425 0 0 0 6.822 18c8.186 0 12.662-6.923 12.662-12.928 0-.198-.004-.395-.011-.59a9.107 9.107 0 0 0 2.218-2.351 8.745 8.745 0 0 1-2.555.715A4.538 4.538 0 0 0 21.093.333" fill="" fill-rule="evenodd"/>
</symbol><symbol id="user-1" viewBox="0 0 80 88">
    <title>
        Fill 1
    </title>
    <path d="M62.509 63.122c-9.502-3.964-11.752-5.26-11.752-5.26l-.083-9.091s3.558-2.721 4.669-11.321c2.221.647 2.973-2.623 3.093-4.713.132-2.019 1.314-8.315-1.405-7.753.557-4.203.993-8.002.794-10.014C57.147 7.91 52.302.537 40.072 0 29.676.538 22.926 7.915 22.246 14.976c-.197 2.011.202 5.807.759 10.018-2.717-.569-1.547 5.736-1.428 7.755.131 2.09.866 5.372 3.094 4.724 1.104 8.598 4.663 11.341 4.663 11.341l-.088 9.139s-2.252 1.384-11.753 5.348c-9.502 3.971-6.522.822-14.262 4.701C-9 74.135-9 91-9 91h98s0-16.865-12.229-22.997c-7.741-3.88-4.761-.91-14.262-4.881" fill="" fill-rule="evenodd"/>
</symbol></svg>