<svg width="120" height="66" viewBox="0 0 120 66" xmlns="http://www.w3.org/2000/svg"><title>placeholder</title><path d="M24.492 16.351C13.976 16.351.01 31.5.01 31.5c-.02.036 0 35 0 35l89.208-.128-37.555-33.28c-8.926-7.576-21-16.741-27.17-16.741zm40.751 24.307C71.217 35.397 86.13 23 94.008 23c10 0 26.992 12.591 26.992 12.591l-.103 30.909-30.96-.127-24.694-25.715zM48.513 8.982c0 4.978 4.043 9.018 9.017 9.018 4.939 0 8.982-4.04 8.982-9.018C66.512 4.041 62.47 0 57.53 0c-4.976 0-9.018 4.043-9.018 8.982z" fill="#E6E6E6" opacity=".9" fill-rule="evenodd"/></svg>