<svg width="46" height="56" viewBox="0 0 46 56" xmlns="http://www.w3.org/2000/svg"><title>arts</title><g transform="translate(.004)" fill="none" fill-rule="evenodd"><path d="M21.935 56c-1.771 0-13.446-2.146-13.446-4.2 0-1.508 3.116-2.8 14.154-2.8 10.77 0 14.153 1.291 14.153 2.8 0 1.206-6.781 4.2-14.861 4.2z" opacity=".25" fill="#000"/><path d="M0 23.1C0 10.33 10.504 0 22.646 0c11.85 0 22.646 10.33 22.646 23.1 0 16.354-20.72 32.9-23.354 32.9C19.918 56 0 38.832 0 23.1z" fill="#F7BC32"/><ellipse fill="#FFF" cx="22.643" cy="22.4" rx="17.692" ry="17.5"/><g fill="#F7BC32"><path d="M32.407 32.054H13.593V17.675h18.814v14.38zm-8.837-18.05l3.39 2.825h-6.666l3.276-2.826zm4.717 2.825l-4.444-3.705a.433.433 0 0 0-.558.003l-4.292 3.703h-6.255V32.9h20.524V16.83h-4.976.001z"/><path d="M19.171 27.402h2.527c-.491-1.023-.948-2.147-1.263-3.293-.315 1.146-.772 2.27-1.264 3.293"/><path d="M20.006 21.238c0-.233.192-.423.429-.423.236 0 .427.19.427.424 0 4.025 3.376 8.995 4.067 9.97h1.49v-3.384c0-.234.19-.423.427-.423h1.283v-2.114c0-.234.191-.423.427-.423h2.994v-6.342H14.448V31.21h1.49c.693-.976 4.07-5.948 4.07-9.97"/><path d="M18.749 28.248a30.721 30.721 0 0 1-1.772 2.96h6.914a31.13 31.13 0 0 1-1.771-2.96h-3.373.002zm8.528 2.96h.854v-2.96h-.855v2.96zm1.709-3.383v3.383h2.565v-5.497h-2.565v2.114z"/></g></g></svg>