<svg width="45" height="56" viewBox="0 0 45 56" xmlns="http://www.w3.org/2000/svg"><title>bar</title><g fill="none" fill-rule="evenodd"><path d="M21.793 56c-1.76 0-13.359-2.146-13.359-4.2 0-1.508 3.097-2.8 14.062-2.8 10.702 0 14.063 1.291 14.063 2.8 0 1.206-6.738 4.2-14.766 4.2z" opacity=".25" fill="#000"/><path d="M0 23.1C0 10.33 10.436 0 22.5 0 34.273 0 45 10.33 45 23.1 45 39.454 24.414 56 21.797 56 19.79 56 0 38.832 0 23.1z" fill="#2578B4"/><ellipse fill="#FFF" cx="22.496" cy="22.4" rx="17.578" ry="17.5"/><path d="M17.663 19.075l.566-4.23h8.542l.574 4.23h-9.682zm10.743 1.692c0-.19-.822-6.215-.847-6.4a.423.423 0 0 0-.418-.367h-9.282a.424.424 0 0 0-.419.367c-.014.117-.846 6.28-.846 6.4a5.918 5.918 0 0 0 5.484 5.9v6.787h-2.11a.422.422 0 1 0 0 .846h5.063a.422.422 0 1 0 0-.846h-2.11v-6.788a5.92 5.92 0 0 0 5.485-5.9z" fill="#2578B4"/></g></svg>