<svg width="46" height="56" viewBox="0 0 46 56" xmlns="http://www.w3.org/2000/svg"><title>coffee</title><g transform="translate(.004)" fill="none" fill-rule="evenodd"><path d="M21.935 56c-1.771 0-13.446-2.146-13.446-4.2 0-1.508 3.116-2.8 14.154-2.8 10.77 0 14.153 1.291 14.153 2.8 0 1.206-6.781 4.2-14.861 4.2z" opacity=".25" fill="#000"/><path d="M0 23.1C0 10.33 10.504 0 22.646 0c11.85 0 22.646 10.33 22.646 23.1 0 16.354-20.72 32.9-23.354 32.9C19.918 56 0 38.832 0 23.1z" fill="#45B2E5"/><ellipse fill="#FFF" cx="22.643" cy="22.4" rx="17.692" ry="17.5"/><path d="M28.838 17.747h1.711c1.388 0 2.137 1.274 2.137 2.471s-.749 2.471-2.137 2.471h-1.71v-4.942zm4.704 11.53h-8.24c2.106-1.124 3.536-3.285 3.536-5.765h1.711c1.705 0 2.993-1.416 2.993-3.295 0-1.876-1.288-3.294-2.993-3.294h-1.71v-.411a.42.42 0 0 0-.428-.412H15.583a.42.42 0 0 0-.426.412v7c0 2.48 1.43 4.64 3.535 5.765h-4.82a.42.42 0 0 0-.426.411.42.42 0 0 0 .428.412h19.668a.42.42 0 0 0 .427-.412.42.42 0 0 0-.427-.411z" fill="#45B2E5"/></g></svg>