<svg width="46" height="56" viewBox="0 0 46 56" xmlns="http://www.w3.org/2000/svg"><title>fast_food</title><g transform="translate(.004)" fill="none" fill-rule="evenodd"><path d="M21.935 56c-1.771 0-13.446-2.146-13.446-4.2 0-1.508 3.116-2.8 14.154-2.8 10.77 0 14.153 1.291 14.153 2.8 0 1.206-6.781 4.2-14.861 4.2z" opacity=".25" fill="#000"/><path d="M0 23.1C0 10.33 10.504 0 22.646 0c11.85 0 22.646 10.33 22.646 23.1 0 16.354-20.72 32.9-23.354 32.9C19.918 56 0 38.832 0 23.1z" fill="#8D40A6"/><ellipse fill="#FFF" cx="22.646" cy="22.4" rx="17.692" ry="17.5"/><path d="M30.364 27.754l-2.466 1.691a.393.393 0 0 1-.357.05l-4.933-1.691a.425.425 0 0 1 .13-.825h7.4c.179 0 .339.123.392.301a.43.43 0 0 1-.166.474m.184-1.197H14.927c-1.288 0-2.055.632-2.055 1.69 0 1.06.767 1.693 2.054 1.693h15.62c1.287 0 2.056-.63 2.056-1.69s-.77-1.692-2.056-1.692m.002 3.805h-15.62a.418.418 0 0 0-.411.422v.422c0 1.06.768 1.692 2.055 1.692h12.33c1.288 0 2.056-.633 2.056-1.693v-.423a.418.418 0 0 0-.41-.423m0-7.611c-.381 0-.765-.124-.952-.306a.395.395 0 0 0-.343-.112.408.408 0 0 0-.297.213c-.26.479-.762 1.05-1.696 1.05-.876 0-1.378-.302-1.679-1.013a.41.41 0 0 0-.377-.255c-.164 0-.31.1-.377.253-.317.75-1.286 1.015-2.088 1.015-.803 0-1.773-.266-2.09-1.013a.41.41 0 0 0-.376-.255c-.165 0-.312.1-.378.253-.3.713-.804 1.015-1.678 1.015-.935 0-1.436-.57-1.695-1.05a.41.41 0 0 0-.297-.213.4.4 0 0 0-.347.112c-.186.182-.57.306-.948.306-1.234 0-1.234-.637-1.234-.846 0-.423.85-.749 1.277-.847h15.533c.427.098 1.277.424 1.277.847 0 .21 0 .846-1.233.846m-11.924-6.766c.227 0 .41.19.41.424a.418.418 0 0 1-.41.422.418.418 0 0 1-.41-.423c0-.232.184-.423.41-.423m2.056-.846c.226 0 .41.19.41.423a.417.417 0 0 1-.41.422.418.418 0 0 1-.41-.423c0-.233.183-.424.41-.424m2.055.846a.42.42 0 0 1 .41.424.419.419 0 0 1-.41.423.418.418 0 0 1-.412-.424c0-.232.184-.422.41-.422m2.056-.845c.227 0 .41.19.41.423a.418.418 0 0 1-.41.422.418.418 0 0 1-.41-.423c0-.233.184-.424.41-.424m2.055.847c.227 0 .41.19.41.423a.418.418 0 0 1-.41.423.418.418 0 0 1-.41-.424c0-.232.184-.422.41-.422m5.755 5.922c0-.98-1.094-1.434-1.663-1.603-.165-4.41-3.629-7.7-8.2-7.7-4.574 0-8.038 3.29-8.206 7.702-.569.17-1.66.623-1.66 1.603 0 .399.107.736.31 1.003a2.152 2.152 0 0 0-.312 1.11c0 1.167.92 2.115 2.055 2.115h15.618c1.135 0 2.058-.948 2.058-2.114 0-.408-.12-.787-.316-1.111.205-.266.316-.604.316-1.004" fill="#8D40A6"/></g></svg>