<svg width="46" height="56" viewBox="0 0 46 56" xmlns="http://www.w3.org/2000/svg"><title>hotel</title><g transform="translate(.004)" fill="none" fill-rule="evenodd"><path d="M21.935 56c-1.771 0-13.446-2.146-13.446-4.2 0-1.508 3.116-2.8 14.154-2.8 10.77 0 14.153 1.291 14.153 2.8 0 1.206-6.781 4.2-14.861 4.2z" opacity=".25" fill="#000"/><path d="M0 23.1C0 10.33 10.504 0 22.646 0c11.85 0 22.646 10.33 22.646 23.1 0 16.354-20.72 32.9-23.354 32.9C19.918 56 0 38.832 0 23.1z" fill="#F28B30"/><ellipse fill="#FFF" cx="22.646" cy="22.4" rx="17.692" ry="17.5"/><path d="M15.732 16.52h14.536a.424.424 0 0 0 .428-.42v-.84a.422.422 0 0 0-.307-.403l-7.268-2.1a.44.44 0 0 0-.24 0l-7.269 2.1a.422.422 0 0 0-.307.403v.84c0 .232.191.42.428.42h-.001zm11.972 3.36h-1.71V18.2h1.71v1.68zm0 3.36h-1.71v-1.68h1.71v1.68zm0 3.36h-1.71v-1.68h1.71v1.68zm0 3.36h-1.71v-1.68h1.71v1.68zm-2.994 2.1h-3.42v-3.78c0-.231.191-.42.428-.42h2.566c.235 0 .427.189.427.42v3.78zm-2.99-7.14h2.564v1.68H21.72v-1.68zm0-3.36h2.564v1.68H21.72v-1.68zm0-3.36h2.564v1.68H21.72V18.2zm-1.711 1.68h-1.71V18.2h1.71v1.68zm0 3.36h-1.71v-1.68h1.71v1.68zm0 3.36h-1.71v-1.68h1.71v1.68zm0 3.36h-1.71v-1.68h1.71v1.68zm12.827 2.1h-2.993v-14.7a.424.424 0 0 0-.428-.42h-12.83a.425.425 0 0 0-.428.42v14.7h-2.993a.424.424 0 0 0-.427.42c0 .232.191.42.427.42h19.668a.424.424 0 0 0 .427-.42.426.426 0 0 0-.428-.42h.005z" fill="#F28B30"/></g></svg>