<svg width="46" height="56" viewBox="0 0 46 56" xmlns="http://www.w3.org/2000/svg"><title>local_attraction</title><g transform="translate(.004)" fill="none" fill-rule="evenodd"><path d="M21.935 56c-1.771 0-13.446-2.146-13.446-4.2 0-1.508 3.116-2.8 14.154-2.8 10.77 0 14.153 1.291 14.153 2.8 0 1.206-6.781 4.2-14.861 4.2z" opacity=".25" fill="#000"/><path d="M0 23.1C0 10.33 10.504 0 22.646 0c11.85 0 22.646 10.33 22.646 23.1 0 16.354-20.72 32.9-23.354 32.9C19.918 56 0 38.832 0 23.1z" fill="#6FBA45"/><ellipse fill="#FFF" cx="22.643" cy="22.4" rx="17.692" ry="17.5"/><path d="M14.423 29.934c0 .233.19.423.427.423h16.246a.426.426 0 0 0 .429-.423.426.426 0 0 0-.428-.423H14.85a.425.425 0 0 0-.428.423zm3.02-1.263a.425.425 0 0 0 .427-.423l-.026-6.773a.426.426 0 0 0-.428-.424h-1.71a.424.424 0 0 0-.428.423l.027 6.772c0 .234.19.423.427.423h1.71v.002zm4.275 0a.425.425 0 0 0 .428-.423l-.027-6.773a.426.426 0 0 0-.428-.424h-1.71a.425.425 0 0 0-.427.423l.025 6.772c0 .234.191.423.427.423h1.712v.002zm4.276 0a.425.425 0 0 0 .427-.423l-.026-6.773a.426.426 0 0 0-.428-.424h-1.71a.424.424 0 0 0-.428.423l.029 6.772c0 .234.19.423.426.423h1.711v.002zm4.275 0a.425.425 0 0 0 .428-.423l-.026-6.773a.426.426 0 0 0-.428-.424h-1.71a.424.424 0 0 0-.428.423l.026 6.772c0 .234.192.423.428.423h1.71v.002zm-8.55-14.378c.235 0 .427.189.427.422a.426.426 0 0 1-.428.424c-1.055 0-2.566.498-2.566.846a.425.425 0 0 1-.427.423.426.426 0 0 1-.428-.424c0-1.276 2.545-1.691 3.421-1.691zm-6.414 3.383h15.392a.425.425 0 0 0 .427-.422c0-2.74-3.343-4.654-8.124-4.654-4.784 0-8.124 1.913-8.124 4.652 0 .233.192.423.428.423zm-1.283 2.537h17.957a.425.425 0 0 0 .428-.423l-.027-.85a.425.425 0 0 0-.428-.424H13.995a.424.424 0 0 0-.428.424l.028.852c0 .234.192.423.428.423l-.001-.003zm18.813 10.996h-19.67a.425.425 0 0 0-.427.424v.846c0 .233.192.422.428.422h19.668a.425.425 0 0 0 .428-.422v-.847a.425.425 0 0 0-.428-.423z" fill="#6FBA45"/></g></svg>