<svg width="46" height="56" viewBox="0 0 46 56" xmlns="http://www.w3.org/2000/svg"><title>medicine</title><g transform="translate(.354)" fill="none" fill-rule="evenodd"><path d="M21.935 56c-1.771 0-13.446-2.146-13.446-4.2 0-1.508 3.116-2.8 14.154-2.8 10.77 0 14.153 1.291 14.153 2.8 0 1.206-6.781 4.2-14.861 4.2z" opacity=".25" fill="#000"/><path d="M0 23.1C0 10.33 10.504 0 22.646 0c11.85 0 22.646 10.33 22.646 23.1 0 16.354-20.72 32.9-23.354 32.9C19.918 56 0 38.832 0 23.1z" fill="#81C784"/><ellipse fill="#FFF" cx="22.643" cy="22.4" rx="17.692" ry="17.5"/><g fill="#81C784"><path d="M26.285 29.333c-.22.436-.658.707-1.146.707-.643-.028-1.089-.423-1.235-.928l-.805-2.806-.662 1.322c-.203.403-.603.687-1.135.707-.436 0-.83-.198-1.08-.57l-.705-1.053-.196.259c-.24.32-.623.511-1.026.511h-2.252c1.333 2.295 4.576 5.236 6.722 6.657a.43.43 0 0 0 .498-.02c1.878-1.44 4.952-4.468 6.3-6.636h-2.349l-.927 1.85h-.002zm-11.731-4.406h3.102l.898-1.194c.238-.32.626-.511 1.038-.511a1.3 1.3 0 0 1 1.054.569l.484.724 1.15-2.29c.22-.436.658-.708 1.147-.708.644.028 1.09.427 1.234.928l.826 2.884c.238-.254.573-.401.934-.401h4.73c.602-.971 1.256-2.95 1.256-4.626 0-3.677-2.407-5.601-4.784-5.601-1.763 0-3.707 1.073-4.623 3.426-.902-2.317-2.797-3.372-4.515-3.372-3.21 0-4.892 3.045-4.892 6.052 0 1.573.494 3.315.96 4.12z"/><path d="M32.834 25.778H26.42a.426.426 0 0 0-.382.235l-.79 1.579-1.41-4.913c-.048-.17-.195-.3-.428-.31a.42.42 0 0 0-.366.236l-1.81 3.605-1.3-1.944a.436.436 0 0 0-.358-.19.442.442 0 0 0-.34.17l-1.154 1.535h-4.918a.426.426 0 0 0 0 .851h5.131a.42.42 0 0 0 .34-.17l.923-1.223 1.373 2.055c.097.143.229.194.397.187a.422.422 0 0 0 .342-.234l1.646-3.28 1.408 4.91a.43.43 0 0 0 .416.31.43.43 0 0 0 .377-.235l1.166-2.322h6.15a.428.428 0 0 0 .426-.426.428.428 0 0 0-.427-.427"/></g></g></svg>