<svg width="46" height="56" viewBox="0 0 46 56" xmlns="http://www.w3.org/2000/svg"><title>night_life</title><g transform="translate(.004)" fill="none" fill-rule="evenodd"><path d="M21.935 56c-1.771 0-13.446-2.146-13.446-4.2 0-1.508 3.116-2.8 14.154-2.8 10.77 0 14.153 1.291 14.153 2.8 0 1.206-6.781 4.2-14.861 4.2z" opacity=".25" fill="#000"/><path d="M0 23.1C0 10.33 10.504 0 22.646 0c11.85 0 22.646 10.33 22.646 23.1 0 16.354-20.72 32.9-23.354 32.9C19.918 56 0 38.832 0 23.1z" fill="#50C7AC"/><ellipse fill="#FFF" cx="22.646" cy="22.4" rx="17.692" ry="17.5"/><path d="M19.914 21.45a2.87 2.87 0 0 1-1.046.687l.124.539a.514.514 0 0 1-.498.63.511.511 0 0 1-.495-.4l-.125-.54c-.09.007-.179.017-.267.017-1.123 0-1.954-.581-2.166-1.515-.272-1.192 1.217-3.052 1.52-3.412a.505.505 0 0 1 .595-.137c.426.189 2.574 1.202 2.845 2.394.144.63-.028 1.246-.488 1.738h.001zm-6.073-4.735a.508.508 0 0 1-.609-.385.512.512 0 0 1 .496-.63c.233 0 .442.161.495.4a.511.511 0 0 1-.382.615zm9.377-2.415l-.52-2.277a.509.509 0 0 0-.61-.385l-10.915 2.534a.512.512 0 0 0-.382.617l3.429 15.013a.523.523 0 0 0 .226.32.51.51 0 0 0 .385.066l2.898-.674 5.343-15.008a.493.493 0 0 1 .146-.206zm5.86 11.958l-2.95 2.205a.5.5 0 0 1-.474.072.514.514 0 0 1-.323-.36l-.884-3.595a.518.518 0 0 1 .19-.536l2.949-2.205a.508.508 0 0 1 .797.289l.885 3.593a.517.517 0 0 1-.191.537zm-.93 5.908l-.308-.657.654-.31.308.656-.651.31h-.003zm-2.58-14.029l.307.655-.65.31-.308-.658.651-.31v.003zm9.603 1.453a.508.508 0 0 0-.288-.264l-10.545-3.818a.51.51 0 0 0-.649.31l-5.159 14.5a.517.517 0 0 0 .306.658l5.27 1.908 5.273 1.91a.508.508 0 0 0 .651-.31l2.581-7.253 2.58-7.25a.516.516 0 0 0-.02-.392z" fill="#50C7AC"/></g></svg>