<svg width="65" height="80" viewBox="0 0 65 80" xmlns="http://www.w3.org/2000/svg"><title>point</title><g transform="translate(.5)" fill="none" fill-rule="evenodd"><path d="M30.995 80c-2.503 0-19-3.066-19-6 0-2.155 4.404-4 20-4 15.221 0 20 1.845 20 4 0 1.723-9.583 6-21 6z" opacity=".25" fill="#000"/><path d="M0 33C0 14.758 14.843 0 32 0c16.744 0 32 14.758 32 33 0 23.363-29.278 47-33 47-2.854 0-31-24.526-31-47z" fill="#4D4D4D"/><circle fill="#FFF" cx="32" cy="32" r="25"/><circle fill="#4D4D4D" cx="32" cy="32" r="10"/></g></svg>