<svg width="46" height="56" viewBox="0 0 46 56" xmlns="http://www.w3.org/2000/svg"><title>restaurant</title><g transform="translate(.004)" fill="none" fill-rule="evenodd"><path d="M21.935 56c-1.771 0-13.446-2.146-13.446-4.2 0-1.508 3.116-2.8 14.154-2.8 10.77 0 14.153 1.291 14.153 2.8 0 1.206-6.781 4.2-14.861 4.2z" opacity=".25" fill="#000"/><path d="M0 23.1C0 10.33 10.504 0 22.646 0c11.85 0 22.646 10.33 22.646 23.1 0 16.354-20.72 32.9-23.354 32.9C19.918 56 0 38.832 0 23.1z" fill="#CC52B6"/><ellipse fill="#FFF" cx="22.643" cy="22.4" rx="17.692" ry="17.5"/><path d="M32.834 26.229H13.166a.421.421 0 0 0-.428.413c0 .227.192.41.428.41h.678l1.585 1.527a.43.43 0 0 0 .302.121h14.536a.439.439 0 0 0 .305-.12l1.583-1.526h.678a.42.42 0 0 0 .427-.413.42.42 0 0 0-.428-.411m-14.878-3.927c1.106-1.666 2.992-2.66 5.045-2.66a.42.42 0 0 1 .427.411.42.42 0 0 1-.427.412c-1.76 0-3.376.854-4.324 2.282a.436.436 0 0 1-.591.123.403.403 0 0 1-.13-.568M23 15.936c.47 0 .854.37.854.824 0 .454-.384.823-.854.823-.472 0-.857-.37-.857-.823 0-.455.385-.824.857-.824m-7.695 9.882h15.4a.42.42 0 0 0 .428-.412c0-3.776-2.855-7.048-6.737-7.7a1.59 1.59 0 0 0 .316-.947c0-.908-.767-1.647-1.71-1.647-.942 0-1.71.737-1.71 1.645 0 .354.119.68.316.948-3.816.64-6.73 3.845-6.73 7.7a.42.42 0 0 0 .428.412" fill="#CC52B6"/></g></svg>