<svg width="46" height="56" viewBox="0 0 46 56" xmlns="http://www.w3.org/2000/svg"><title>sights</title><g transform="translate(.004)" fill="none" fill-rule="evenodd"><path d="M21.935 56c-1.771 0-13.446-2.146-13.446-4.2 0-1.508 3.116-2.8 14.154-2.8 10.77 0 14.153 1.291 14.153 2.8 0 1.206-6.781 4.2-14.861 4.2z" opacity=".25" fill="#000"/><path d="M0 23.1C0 10.33 10.504 0 22.646 0c11.85 0 22.646 10.33 22.646 23.1 0 16.354-20.72 32.9-23.354 32.9C19.918 56 0 38.832 0 23.1z" fill="#ADD136"/><ellipse fill="#FFF" cx="22.643" cy="22.4" rx="17.692" ry="17.5"/><g fill="#ADD136"><path d="M15.805 18.9a.941.941 0 0 0-.943.933.94.94 0 0 0 .943.934.94.94 0 0 0 .944-.934.94.94 0 0 0-.944-.933m9.908 7c-1.821 0-3.303-1.465-3.303-3.267 0-1.801 1.482-3.266 3.303-3.266s3.302 1.465 3.302 3.266c0 1.802-1.48 3.267-3.302 3.267m0-7.933c-2.602 0-4.718 2.093-4.718 4.666 0 2.573 2.116 4.667 4.718 4.667 2.601 0 4.718-2.093 4.718-4.667 0-2.573-2.116-4.666-4.718-4.666"/><path d="M25.713 28.233c-3.123 0-5.662-2.511-5.662-5.6 0-3.088 2.54-5.6 5.662-5.6 3.12 0 5.661 2.512 5.661 5.6 0 3.088-2.54 5.6-5.661 5.6M15.805 21.7a1.878 1.878 0 0 1-1.887-1.867c0-1.029.847-1.866 1.887-1.866a1.88 1.88 0 0 1 1.887 1.866c0 1.03-.846 1.867-1.887 1.867m16.46-5.6h-1.542l-.814-1.61-.03-.049c-.495-.735-1.136-1.141-1.806-1.141h-4.72c-.67 0-1.31.406-1.792 1.12l-1.274 1.68h-2.595v-.467c0-.745-.686-1.4-1.468-1.4h-.89c-.74 0-1.39.655-1.39 1.388l-.014.505c-1.552.168-1.9 1.183-1.9 2.049v9.695c0 1.418.878 2.23 2.413 2.23h17.822c1.534 0 2.412-.812 2.412-2.23v-9.695c0-.948-.418-2.075-2.412-2.075"/></g></g></svg>