<svg width="45" height="56" viewBox="0 0 45 56" xmlns="http://www.w3.org/2000/svg"><title>transport</title><g fill="none" fill-rule="evenodd"><path d="M21.793 56c-1.76 0-13.359-2.146-13.359-4.2 0-1.508 3.097-2.8 14.062-2.8 10.702 0 14.063 1.291 14.063 2.8 0 1.206-6.738 4.2-14.766 4.2z" opacity=".25" fill="#000"/><path d="M0 23.1C0 10.33 10.436 0 22.5 0 34.273 0 45 10.33 45 23.1 45 39.454 24.414 56 21.797 56 19.79 56 0 38.832 0 23.1z" fill="#F98F87"/><ellipse fill="#FFF" cx="22.496" cy="22.4" rx="17.578" ry="17.5"/><path d="M29.04 28.42c.913 0 1.678-.627 1.898-1.47H27.14c.219.844.984 1.47 1.898 1.47zm-13.782 0c.914 0 1.679-.627 1.898-1.47H13.36c.22.844.985 1.47 1.899 1.47z"/><path d="M28.644 19.61c-.006 0-.014-.009-.02-.01H11.813c-1.234 0-1.97.732-1.97 1.96v4.071c0 .752.636 1.319 1.477 1.319h1.029a2.953 2.953 0 0 1-.044-.49 2.95 2.95 0 0 1 2.953-2.94 2.95 2.95 0 0 1 2.953 2.94c0 .168-.017.33-.044.49h7.963a2.953 2.953 0 0 1-.044-.49 2.95 2.95 0 0 1 2.953-2.94 2.95 2.95 0 0 1 2.953 2.94c0 .168-.017.33-.044.49h1.029c.787 0 1.476-.686 1.476-1.47v-2.94c0-1.688-4.84-2.737-5.81-2.93z" fill="#F98F87"/><path d="M29.04 23.52a2.95 2.95 0 0 0-2.954 2.94 2.952 2.952 0 0 0 5.906 0 2.95 2.95 0 0 0-2.953-2.94zm0 4.9c-.915 0-1.68-.627-1.9-1.47a1.88 1.88 0 0 1-.07-.49c0-1.08.883-1.96 1.97-1.96 1.085 0 1.968.88 1.968 1.96 0 .17-.028.332-.07.49a1.964 1.964 0 0 1-1.899 1.47zm-13.782-4.9a2.95 2.95 0 0 0-2.953 2.94 2.952 2.952 0 0 0 5.906 0 2.95 2.95 0 0 0-2.953-2.94zm0 4.9c-.914 0-1.68-.627-1.899-1.47a1.88 1.88 0 0 1-.07-.49c0-1.08.883-1.96 1.969-1.96 1.085 0 1.969.88 1.969 1.96 0 .17-.029.332-.07.49a1.964 1.964 0 0 1-1.9 1.47z" fill="#F98F87"/><path d="M31.963 26.123h1.494c.527 0 .996-.448.996-.954v-2.864c0-.912-2.988-1.91-5.479-2.386-.836-.162-2.988-2.864-2.988-2.864-.498-.479-.996-.955-1.992-.955h-6.907c-1.6 0-1.997 3.819-4.05 3.819h-.996c-.837 0-1.494.372-1.494 1.431v3.965c0 .506.469.808.996.808h1.494m4.98 0h8.965M20.391 16.1v4.2" stroke="#F98F87" stroke-width="1.4"/></g></svg>