<svg width="45" height="56" viewBox="0 0 45 56" xmlns="http://www.w3.org/2000/svg"><title>venue</title><g fill="none" fill-rule="evenodd"><path d="M21.793 56c-1.76 0-13.359-2.146-13.359-4.2 0-1.508 3.097-2.8 14.062-2.8 10.702 0 14.063 1.291 14.063 2.8 0 1.206-6.738 4.2-14.766 4.2z" opacity=".25" fill="#000"/><path d="M0 23.1C0 10.33 10.436 0 22.5 0 34.273 0 45 10.33 45 23.1 45 39.454 24.414 56 21.797 56 19.79 56 0 38.832 0 23.1z" fill="#ED462F"/><ellipse fill="#FFF" cx="22.496" cy="22.4" rx="17.578" ry="17.5"/><g fill="#ED462F"><path d="M25.096 22.837l-2.403 2.375a.428.428 0 0 1-.6 0 .417.417 0 0 1 0-.594l2.402-2.377a.428.428 0 0 1 .6 0 .42.42 0 0 1 0 .595zm-5.707 2.079a.429.429 0 0 1-.6-.002.422.422 0 0 1 0-.595l5.406-5.344a.428.428 0 0 1 .601 0 .414.414 0 0 1 0 .593l-5.405 5.346-.002.002zm6.008-7.723a1.278 1.278 0 0 0-.902-.366c-.341 0-.662.13-.9.366l-6.61 6.535a1.252 1.252 0 0 0 0 1.781l3.005 2.97c.478.474 1.323.474 1.802 0l6.61-6.533a1.25 1.25 0 0 0 0-1.781l-3.005-2.97v-.002z"/><path d="M29.001 22.54l-6.608 6.533a2.12 2.12 0 0 1-1.502.613 2.12 2.12 0 0 1-1.502-.614l-3.004-2.97a2.087 2.087 0 0 1 0-2.97l6.61-6.534a2.115 2.115 0 0 1 1.5-.614c.57 0 1.102.218 1.502.614l3.004 2.97c.828.818.828 2.15 0 2.97m3.604-3.565a.416.416 0 0 0 0-.594l-5.407-5.346a.438.438 0 0 0-.6 0 2.132 2.132 0 0 1-1.504.615c-.568 0-1.1-.219-1.501-.614a.44.44 0 0 0-.6 0l-10.212 10.1a.416.416 0 0 0 0 .593c.401.397.623.924.623 1.486 0 .561-.222 1.088-.623 1.485a.415.415 0 0 0 0 .594l5.407 5.345a.428.428 0 0 0 .6 0 2.12 2.12 0 0 1 1.504-.616c.567 0 1.1.219 1.503.616a.43.43 0 0 0 .602 0L32.604 22.54a.418.418 0 0 0 0-.595 2.086 2.086 0 0 1 0-2.97"/></g></g></svg>